<svg xmlns="http://www.w3.org/2000/svg" width="100" height="100" viewBox="0 0 100 100"><circle cx="13" cy="29" r="2" fill="#ee3e54"/><circle cx="77" cy="13" r="1" fill="#f1bc19"/><circle cx="50" cy="50" r="37" fill="#fce0a2"/><circle cx="83" cy="15" r="4" fill="#f1bc19"/><circle cx="87" cy="24" r="2" fill="#ee3e54"/><circle cx="81" cy="76" r="2" fill="#fbcd59"/><circle cx="15" cy="63" r="4" fill="#fbcd59"/><circle cx="25" cy="87" r="2" fill="#ee3e54"/><circle cx="18.5" cy="53.5" r="2.5" fill="#fff"/><circle cx="21" cy="67" r="1" fill="#f1bc19"/><circle cx="80" cy="34" r="1" fill="#fff"/><path fill="#355ca8" d="m74.088 49.446-8.323-4.849v14.17h9.234V51.03c0-.652-.347-1.255-.911-1.584z"/><path fill="#2d80d3" d="M36.11 32h12.222v13H36.11V32z"/><path fill="#55a7f9" d="M48.332 32h12.222v12H48.332V32z"/><path fill="#6accff" d="M60.5 32h12.277v12H60.5V32z"/><path fill="#2d80d3" d="M48.332 43.5h12.222l-.055 11h-12l-.167-11z"/><path fill="#0553a4" d="M48.5 54.5h12l.055 11.389H48.332L48.5 54.5"/><path fill="#4792dd" d="M60.555 43.5h12.222v10.889H60.555V43.5z"/><path fill="#0262b8" d="M60.555 54.5h12.222v11.389H60.555V54.5z"/><path fill="#1e65d6" d="M72.777 32.489H36.11v-2.044a2.443 2.443 0 0 1 2.444-2.444h31.778a2.443 2.443 0 0 1 2.444 2.444v2.044z"/><path fill="#4792dd" d="M37.5 72.5c.413.321 1.376-.5 1.941-.5h33.005a2.443 2.443 0 0 0 2.444-2.444V51.222L37.5 72.5z"/><path fill="#472b29" d="m37.624 72.717-.248-.434 37.39-21.278.248.434z"/><path fill="#55a7f9" d="M36.11 51.222v18.333a2.443 2.443 0 0 0 2.444 2.444h33.005c.565 0 1.528.821 1.941.5L36.11 51.222z"/><path fill="#472b29" d="M72.859 73H38.154a3.15 3.15 0 0 1-3.145-3.145v-39.71A3.149 3.149 0 0 1 38.154 27h32.678a3.15 3.15 0 0 1 3.145 3.145v18.466a2.509 2.509 0 0 1 2.022 2.456c.001.768.009 13.443.005 18.796a3.14 3.14 0 0 1-1.609 2.726 3.646 3.646 0 0 1-.447.209 3.324 3.324 0 0 1-.192.061 3.381 3.381 0 0 1-.319.084 3.053 3.053 0 0 1-.578.057zM38.154 28.4c-.962 0-1.744.782-1.744 1.744v39.711c0 .962.782 1.744 1.744 1.744h34.705c.108 0 .214-.013.316-.032.034-.006.067-.017.1-.027l.099-.028c.157-.052.223-.084.288-.118.606-.339.941-.902.941-1.532.004-5.352-.004-18.025-.005-18.793v-.001c0-.608-.494-1.103-1.103-1.103h-.22a.7.7 0 0 1-.7-.7v-19.12c0-.962-.782-1.744-1.744-1.744H38.154z"/><path fill="#472b29" d="M36 32.25h37v.5H36zm24.5 11H73v.5H60.5z"/><path fill="#472b29" d="M60.5 39.75a.25.25 0 0 1-.25-.25v-7a.25.25 0 0 1 .5 0v7a.25.25 0 0 1-.25.25zm-12 4a.25.25 0 0 1-.25-.25v-11a.25.25 0 0 1 .5 0v11a.25.25 0 0 1-.25.25zm12 15.9a.25.25 0 0 1-.25-.25V41.5a.25.25 0 0 1 .5 0v17.9a.25.25 0 0 1-.25.25z"/><path fill="#472b29" d="M73.09 52.4h-.5v-8.65H48.5v-.5h24.59zm-3.99 2.35H50.5a.25.25 0 0 1 0-.5h18.6a.25.25 0 0 1 0 .5zm-5.623 12.296a.253.253 0 0 1-.124-.033L35.986 51.439a.25.25 0 0 1 .248-.435L63.6 66.578a.25.25 0 0 1-.123.468zm3.189 1.815a.253.253 0 0 1-.124-.033l-1.073-.611a.25.25 0 0 1 .248-.435l1.073.611a.25.25 0 0 1-.124.468zM73.5 72.75a.253.253 0 0 1-.124-.033l-5.006-2.849a.25.25 0 0 1 .248-.435l5.006 2.849a.25.25 0 0 1-.124.468z"/><path fill="#2d80d3" d="M46.172 63H25.548a2.589 2.589 0 0 1-2.578-2.6V39.6c0-1.436 1.154-2.6 2.578-2.6h20.624a2.589 2.589 0 0 1 2.578 2.6v20.8c0 1.436-1.154 2.6-2.578 2.6z"/><path fill="#2d80d3" d="M25.548 62c-.87 0-1.578-.718-1.578-1.6V39.6c0-.882.708-1.6 1.578-1.6h20.624c.87 0 1.578.718 1.578 1.6v20.8c0 .882-.708 1.6-1.578 1.6H25.548z"/><path fill="#472b29" d="M46.172 38.4c.65 0 1.178.538 1.178 1.2v20.8c0 .662-.528 1.2-1.178 1.2H25.548a1.19 1.19 0 0 1-1.178-1.2V39.6c0-.662.528-1.2 1.178-1.2h20.624m0-1.4H25.548a2.588 2.588 0 0 0-2.578 2.6v20.8c0 1.437 1.154 2.6 2.578 2.6h20.624a2.588 2.588 0 0 0 2.578-2.6V39.6c0-1.437-1.154-2.6-2.578-2.6z"/><path fill="#fff" d="M35.86 43.511c-3.802 0-6.093 2.905-6.093 6.489s2.282 6.489 6.093 6.489c3.812 0 6.093-2.905 6.093-6.488 0-3.585-2.291-6.49-6.093-6.49zm0 10.788c-2.157 0-3.447-1.924-3.447-4.297s1.296-4.297 3.447-4.297 3.448 1.925 3.448 4.297-1.292 4.297-3.448 4.297z"/><path fill="#472b29" d="M35.86 56.739c-3.734 0-6.343-2.771-6.343-6.739s2.608-6.739 6.343-6.739 6.343 2.771 6.343 6.74c0 3.967-2.608 6.738-6.343 6.738zm0-12.978c-3.44 0-5.843 2.565-5.843 6.239s2.402 6.239 5.843 6.239 5.843-2.565 5.843-6.237c0-3.675-2.402-6.241-5.843-6.241zm0 10.787c-2.177 0-3.697-1.87-3.697-4.547s1.521-4.547 3.697-4.547 3.697 1.87 3.697 4.547-1.52 4.547-3.697 4.547zm0-8.594c-1.883 0-3.197 1.665-3.197 4.047s1.314 4.047 3.197 4.047 3.197-1.664 3.197-4.047-1.314-4.047-3.197-4.047z"/></svg>
